<svg width="155" height="141" viewBox="0 0 155 141" fill="none" xmlns="http://www.w3.org/2000/svg">
<rect y="76.7468" width="42.9767" height="19.6329" rx="5" fill="#5BC0EB"/>
<rect y="121.367" width="42.9767" height="19.6329" rx="5" fill="#5BC0EB"/>
<rect x="23.2793" y="99.9495" width="41.186" height="19.6329" rx="5" fill="#5BC0EB"/>
<rect x="46.5581" y="76.7468" width="41.186" height="19.6329" rx="5" fill="#5BC0EB"/>
<rect x="46.5581" y="121.367" width="41.186" height="19.6329" rx="5" fill="#5BC0EB"/>
<rect x="68.0469" y="99.9495" width="41.186" height="19.6329" rx="5" fill="#5BC0EB"/>
<rect x="112.814" y="99.9495" width="19.6977" height="19.6329" rx="5" fill="#5BC0EB"/>
<rect y="99.9495" width="19.6977" height="19.6329" rx="5" fill="#5BC0EB"/>
<rect x="91.3252" y="76.7468" width="41.186" height="19.6329" rx="5" fill="#5BC0EB"/>
<rect x="91.3252" y="121.367" width="41.186" height="19.6329" rx="5" fill="#5BC0EB"/>
<path d="M7.16309 10.7263C7.16309 7.75941 9.56825 5.35425 12.5352 5.35425C15.5021 5.35425 17.9073 7.75942 17.9073 10.7263V73.9618C17.9073 74.5141 17.4596 74.9618 16.9073 74.9618H8.16308C7.6108 74.9618 7.16309 74.5141 7.16309 73.9618V10.7263Z" fill="#5BC0EB"/>
<path d="M132.802 8.92383C133.631 8.92383 134.302 9.5954 134.302 10.4238L134.302 12.7783C134.302 13.6067 133.631 14.2783 132.802 14.2783L16.1162 14.2783L16.1162 8.92382L132.802 8.92383Z" fill="#5BC0EB"/>
<path d="M128.93 10.4238C128.93 9.5954 129.602 8.92383 130.43 8.92383H132.803C133.632 8.92383 134.303 9.5954 134.303 10.4238V35.9808C134.303 36.8092 133.632 37.4808 132.803 37.4808H130.43C129.602 37.4808 128.93 36.8092 128.93 35.9808V10.4238Z" fill="#5BC0EB"/>
<rect x="109.232" width="24.9873" height="87.7442" rx="5" transform="rotate(90 109.232 0)" fill="#5BC0EB"/>
<rect x="155" y="38.481" width="7.13924" height="19.6977" rx="3.56962" transform="rotate(90 155 38.481)" fill="#5BC0EB"/>
<path d="M113.056 8.84898C113.056 5.98017 115.381 3.65454 118.25 3.65454C121.119 3.65454 123.445 5.98017 123.445 8.84898V73.9194C123.445 74.4717 122.997 74.9194 122.445 74.9194H114.056C113.503 74.9194 113.056 74.4717 113.056 73.9194V8.84898Z" fill="#5BC0EB"/>
<path d="M60.3862 70.2476H36.0804C35.6069 70.2476 35.1984 69.9156 35.1015 69.4521L31.0428 50.0344C30.913 49.4133 31.3871 48.8298 32.0216 48.8298H63.6332C64.2513 48.8298 64.7214 49.3851 64.6195 49.9948L61.3725 69.4125C61.2919 69.8944 60.8748 70.2476 60.3862 70.2476Z" fill="#5BC0EB"/>
<rect x="29" y="46.4785" width="37.6047" height="3.56962" rx="1" fill="#5BC0EB"/>
<path d="M31.8176 49.048C32.3063 39.9103 39.4605 33.2 47.9755 33.2C56.4663 33.2 63.3222 39.8865 63.7889 49.048H63.781H63.7261H63.6715H63.617H63.5629H63.5089H63.4553H63.4019H63.3487H63.2958H63.2431H63.1907H63.1385H63.0865H63.0348H62.9834H62.9321H62.8811H62.8304H62.7799H62.7296H62.6796H62.6298H62.5802H62.5308H62.4817H62.4328H62.3842H62.3357H62.2875H62.2395H62.1918H62.1442H62.0969H62.0498H62.003H61.9563H61.9099H61.8637H61.8177H61.7719H61.7263H61.6809H61.6358H61.5908H61.5461H61.5016H61.4573H61.4132H61.3692H61.3255H61.282H61.2388H61.1957H61.1528H61.1101H61.0676H61.0253H60.9832H60.9413H60.8996H60.858H60.8167H60.7756H60.7346H60.6939H60.6533H60.6129H60.5727H60.5327H60.4929H60.4532H60.4138H60.3745H60.3354H60.2964H60.2577H60.2191H60.1807H60.1425H60.1044H60.0666H60.0289H59.9913H59.954H59.9168H59.8797H59.8429H59.8062H59.7696H59.7332H59.697H59.661H59.6251H59.5894H59.5538H59.5184H59.4831H59.448H59.4131H59.3783H59.3436H59.3091H59.2748H59.2406H59.2065H59.1726H59.1388H59.1052H59.0718H59.0384H59.0052H58.9722H58.9393H58.9065H58.8739H58.8414H58.809H58.7768H58.7447H58.7127H58.6809H58.6492H58.6176H58.5862H58.5549H58.5237H58.4926H58.4617H58.4309H58.4002H58.3696H58.3391H58.3088H58.2786H58.2485H58.2185H58.1886H58.1588H58.1292H58.0996H58.0702H58.0409H58.0117H57.9826H57.9536H57.9247H57.8959H57.8672H57.8387H57.8102H57.7818H57.7535H57.7253H57.6972H57.6693H57.6414H57.6136H57.5859H57.5582H57.5307H57.5033H57.4759H57.4487H57.4215H57.3944H57.3674H57.3405H57.3137H57.2869H57.2602H57.2336H57.2071H57.1807H57.1543H57.128H57.1018H57.0757H57.0496H57.0236H56.9977H56.9718H56.9461H56.9203H56.8947H56.8691H56.8436H56.8181H56.7927H56.7674H56.7421H56.7169H56.6917H56.6666H56.6415H56.6165H56.5916H56.5667H56.5419H56.5171H56.4923H56.4676H56.443H56.4184H56.3939H56.3694H56.3449H56.3205H56.2961H56.2717H56.2474H56.2232H56.199H56.1748H56.1506H56.1265H56.1024H56.0784H56.0543H56.0303H56.0064H55.9824H55.9585H55.9346H55.9108H55.8869H55.8631H55.8393H55.8156H55.7918H55.7681H55.7444H55.7207H55.697H55.6733H55.6497H55.626H55.6024H55.5788H55.5552H55.5316H55.508H55.4844H55.4608H55.4372H55.4136H55.3901H55.3665H55.3429H55.3193H55.2957H55.2722H55.2486H55.225H55.2014H55.1778H55.1542H55.1306H55.1069H55.0833H55.0596H55.036H55.0123H54.9886H54.9649H54.9411H54.9174H54.8936H54.8698H54.846H54.8222H54.7983H54.7744H54.7505H54.7266H54.7026H54.6786H54.6546H54.6305H54.6065H54.5823H54.5582H54.534H54.5098H54.4855H54.4612H54.4369H54.4125H54.3881H54.3636H54.3391H54.3146H54.29H54.2653H54.2406H54.2159H54.1911H54.1663H54.1414H54.1164H54.0914H54.0664H54.0413H54.0161H53.9909H53.9656H53.9403H53.9149H53.8894H53.8639H53.8383H53.8126H53.7869H53.7611H53.7353H53.7093H53.6833H53.6573H53.6311H53.6049H53.5786H53.5523H53.5258H53.4993H53.4727H53.4461H53.4193H53.3925H53.3656H53.3386H53.3115H53.2843H53.257H53.2297H53.2023H53.1747H53.1471H53.1194H53.0916H53.0637H53.0357H53.0076H52.9795H52.9512H52.9228H52.8943H52.8657H52.8371H52.8083H52.7794H52.7504H52.7213H52.6921H52.6628H52.6333H52.6038H52.5742H52.5444H52.5145H52.4845H52.4544H52.4242H52.3939H52.3634H52.3328H52.3021H52.2713H52.2404H52.2093H52.1781H52.1468H52.1154H52.0838H52.0521H52.0203H51.9883H51.9562H51.924H51.8916H51.8591H51.8265H51.7937H51.7608H51.7278H51.6946H51.6612H51.6278H51.5942H51.5604H51.5265H51.4924H51.4583H51.4239H51.3894H51.3548H51.32H51.285H51.2499H51.2146H51.1792H51.1437H51.1079H51.072H51.036H50.9998H50.9634H50.9269H50.8902H50.8533H50.8163H50.7791H50.7417H50.7042H50.6665H50.6286H50.5905H50.5523H50.5139H50.4753H50.4366H50.3977H50.3586H50.3193H50.2798H50.2402H50.2003H50.1603H50.1201H50.0797H50.0392H49.9984H49.9575H49.9163H49.875H49.8335H49.7918H49.7499H49.7078H49.6655H49.623H49.5803H49.5374H49.4943H49.451H49.4075H49.3638H49.3199H49.2758H49.2315H49.187H49.1422H49.0973H49.0521H49.0068H48.9612H48.9154H48.8694H48.8232H48.7768H48.7301H48.6832H48.6361H48.5888H48.5413H48.4935H48.4456H48.3973H48.3489H48.3003H48.2514H48.2023H48.1529H48.1033H48.0535H48.0035H47.9532H47.9027H47.8519H47.801H47.7497H47.6983H47.6466H47.5946H47.5424H47.49H47.4373H47.3844H47.3312H47.2778H47.2242H47.1702H47.1161H47.0617H47.007H46.9521H46.8971H46.8425H46.7881H46.734H46.6802H46.6267H46.5734H46.5203H46.4676H46.4151H46.3629H46.3109H46.2592H46.2077H46.1566H46.1056H46.055H46.0046H45.9544H45.9045H45.8548H45.8054H45.7563H45.7074H45.6587H45.6103H45.5622H45.5143H45.4666H45.4192H45.372H45.3251H45.2784H45.2319H45.1857H45.1397H45.0939H45.0484H45.0031H44.9581H44.9133H44.8687H44.8243H44.7802H44.7363H44.6926H44.6492H44.6059H44.5629H44.5202H44.4776H44.4353H44.3931H44.3512H44.3095H44.2681H44.2268H44.1858H44.1449H44.1043H44.0639H44.0237H43.9837H43.9439H43.9043H43.865H43.8258H43.7868H43.748H43.7095H43.6711H43.6329H43.595H43.5572H43.5196H43.4822H43.445H43.408H43.3712H43.3346H43.2982H43.2619H43.2259H43.19H43.1543H43.1188H43.0835H43.0483H43.0134H42.9786H42.944H42.9095H42.8753H42.8412H42.8073H42.7736H42.74H42.7066H42.6734H42.6404H42.6075H42.5748H42.5422H42.5098H42.4776H42.4455H42.4136H42.3819H42.3503H42.3189H42.2876H42.2565H42.2256H42.1948H42.1641H42.1336H42.1032H42.073H42.043H42.0131H41.9833H41.9537H41.9242H41.8949H41.8657H41.8367H41.8078H41.779H41.7504H41.7219H41.6935H41.6653H41.6372H41.6092H41.5814H41.5537H41.5261H41.4987H41.4714H41.4442H41.4171H41.3902H41.3634H41.3367H41.3101H41.2836H41.2573H41.2311H41.2049H41.179H41.1531H41.1273H41.1017H41.0761H41.0507H41.0253H41.0001H40.975H40.95H40.9251H40.9003H40.8756H40.851H40.8265H40.8021H40.7778H40.7536H40.7295H40.7055H40.6816H40.6577H40.634H40.6104H40.5868H40.5633H40.54H40.5167H40.4935H40.4703H40.4473H40.4243H40.4014H40.3786H40.3559H40.3333H40.3107H40.2882H40.2658H40.2434H40.2212H40.199H40.1768H40.1548H40.1328H40.1108H40.089H40.0672H40.0455H40.0238H40.0022H39.9806H39.9591H39.9377H39.9163H39.895H39.8737H39.8525H39.8314H39.8103H39.7892H39.7682H39.7472H39.7263H39.7055H39.6846H39.6639H39.6431H39.6224H39.6018H39.5812H39.5606H39.5401H39.5196H39.4991H39.4787H39.4583H39.438H39.4176H39.3974H39.3771H39.3568H39.3366H39.3165H39.2963H39.2762H39.256H39.236H39.2159H39.1958H39.1758H39.1558H39.1358H39.1158H39.0958H39.0759H39.0559H39.036H39.0161H38.9962H38.9763H38.9564H38.9365H38.9166H38.8967H38.8768H38.857H38.8371H38.8172H38.7973H38.7774H38.7576H38.7377H38.7178H38.6979H38.6779H38.658H38.6381H38.6181H38.5982H38.5782H38.5582H38.5382H38.5182H38.4982H38.4781H38.4581H38.438H38.4178H38.3977H38.3775H38.3574H38.3371H38.3169H38.2966H38.2763H38.256H38.2356H38.2152H38.1948H38.1743H38.1538H38.1333H38.1127H38.0921H38.0715H38.0508H38.03H38.0093H37.9884H37.9676H37.9466H37.9257H37.9047H37.8836H37.8625H37.8413H37.8201H37.7988H37.7775H37.7561H37.7347H37.7132H37.6916H37.67H37.6483H37.6265H37.6047H37.5829H37.5609H37.5389H37.5168H37.4947H37.4725H37.4502H37.4278H37.4054H37.3829H37.3603H37.3377H37.3149H37.2921H37.2692H37.2462H37.2232H37.2H37.1768H37.1535H37.1301H37.1066H37.0831H37.0594H37.0356H37.0118H36.9879H36.9638H36.9397H36.9155H36.8912H36.8668H36.8423H36.8176H36.7929H36.7681H36.7432H36.7182H36.693H36.6678H36.6424H36.617H36.5914H36.5658H36.54H36.5141H36.4881H36.4619H36.4357H36.4093H36.3829H36.3563H36.3295H36.3027H36.2757H36.2486H36.2214H36.1941H36.1666H36.139H36.1113H36.0835H36.0555H36.0274H35.9991H35.9707H35.9422H35.9136H35.8848H35.8558H35.8268H35.7976H35.7682H35.7387H35.7091H35.6793H35.6494H35.6193H35.589H35.5587H35.5281H35.4975H35.4666H35.4357H35.4045H35.3732H35.3418H35.3102H35.2784H35.2465H35.2144H35.1821H35.1497H35.1171H35.0844H35.0515H35.0184H34.9851H34.9517H34.9181H34.8844H34.8505H34.8163H34.7821H34.7476H34.713H34.6782H34.6432H34.608H34.5726H34.5371H34.5014H34.4655H34.4294H34.3931H34.3566H34.32H34.2832H34.2461H34.2089H34.1715H34.1339H34.096H34.058H34.0198H33.9814H33.9428H33.904H33.865H33.8258H33.7864H33.7468H33.707H33.6669H33.6267H33.5863H33.5456H33.5047H33.4636H33.4224H33.3808H33.3391H33.2972H33.255H33.2126H33.17H33.1272H33.0842H33.0409H32.9974H32.9537H32.9098H32.8656H32.8212H32.7766H32.7317H32.6866H32.6413H32.5958H32.55H32.504H32.4577H32.4112H32.3644H32.3175H32.2702H32.2228H32.1751H32.1271H32.0789H32.0305H31.9818H31.9328H31.8837H31.8342H31.8176Z" stroke="#5BC0EB" stroke-width="2"/>
<path d="M47 25H49V33H47V25Z" fill="#5BC0EB"/>
<path d="M45.5 35C44.6716 35 44 34.3284 44 33.5C44 32.6716 44.6716 32 45.5 32L50.5 32C51.3284 32 52 32.6716 52 33.5C52 34.3284 51.3284 35 50.5 35L45.5 35Z" fill="#5BC0EB"/>
<path d="M131.616 36.6963V37.5732C131.616 40.0461 133.621 42.0507 136.094 42.0507V42.0507" stroke="#5BC0EB" stroke-width="3"/>
</svg>
